<svg width="51" height="57" viewBox="0 0 51 57" fill="none" xmlns="http://www.w3.org/2000/svg">
<path d="M11.0722 0.256702C9.14616 0.742702 7.65216 1.3727 6.44617 2.1827C5.22217 3.0287 3.42217 4.5587 3.42217 4.7747C3.42217 4.8827 3.27817 5.0987 3.11617 5.2247C2.57617 5.6747 1.53217 7.4387 1.02817 8.8067C0.740165 9.5447 0.452165 10.3187 0.362165 10.5167C0.272165 10.7147 0.200165 11.0027 0.164165 11.1467C0.0381653 12.0467 -0.0698347 35.3207 0.0561653 35.9867C0.308165 37.3727 0.596165 38.1827 1.29817 39.6767C2.12617 41.4047 2.95417 42.5927 3.99817 43.5467C4.43017 43.9427 4.93417 44.4107 5.13216 44.5907C5.76217 45.1847 7.97617 46.3907 9.03817 46.7327C10.0822 47.0567 10.0822 47.0567 10.0822 51.3227C10.0822 53.6627 10.1542 55.7867 10.2442 56.0207C10.3522 56.3087 10.6582 56.5427 11.0542 56.6867C11.8822 56.9567 12.6742 56.7047 13.5202 55.9127C13.8622 55.6067 15.0322 54.5087 16.1302 53.5187C17.7862 51.9707 19.6222 50.2427 21.8002 48.1367C22.2502 47.6867 22.2502 47.6867 30.2602 47.6867C35.1742 47.6687 38.5582 47.5967 38.9902 47.4887C42.2302 46.6247 44.0482 45.7247 45.7582 44.1227C46.4602 43.4567 47.1082 42.8267 47.1982 42.7367C48.3502 41.4047 49.1602 39.9467 49.8802 37.9667C50.3122 36.7967 50.3122 36.7967 50.3122 23.8007C50.3122 13.6487 50.2582 10.7507 50.0962 10.5887C49.9702 10.4627 49.8622 10.2107 49.8622 10.0127C49.8622 9.3287 47.9002 5.6027 47.3242 5.2067C47.2522 5.1527 46.9462 4.8107 46.6582 4.4327C45.3262 2.7767 42.3382 1.0307 39.6922 0.346703C38.3062 0.00470352 37.7122 -0.013298 25.1122 0.00470352C15.1222 0.0227013 11.7562 0.0767021 11.0722 0.256702ZM37.8382 2.8847C39.9802 3.3167 42.1762 4.1807 42.6802 4.7927C42.7882 4.9187 42.9862 5.0267 43.0942 5.0267C43.2202 5.0267 43.8682 5.6027 44.5342 6.3227C45.9202 7.7987 47.1802 10.1747 47.5042 11.9747C47.7922 13.4867 47.7922 34.7267 47.5042 35.9327C47.2522 37.0487 47.1802 37.2467 46.3522 38.9567C45.1282 41.4587 42.6082 43.5827 39.9622 44.3207C37.8382 44.9147 36.9562 44.9867 32.1502 44.9867C27.2362 44.9867 27.2362 44.9867 27.0922 43.8527C27.0022 43.2407 26.9302 42.3767 26.9122 41.9267C26.8942 41.4767 26.7862 39.9827 26.6602 38.6147C26.4262 36.0947 26.4262 36.0947 26.8942 35.7167C27.1462 35.5187 27.3622 35.2667 27.3622 35.1767C27.3622 35.0687 27.7762 34.6367 28.2802 34.2047C29.2162 33.3947 29.2162 33.3947 31.3042 33.3767C33.1942 33.3587 33.4822 33.3227 34.4182 32.8727C34.9762 32.6027 35.8582 32.0087 36.3442 31.5587C37.2082 30.7667 38.3422 29.3087 38.3422 28.9667C38.3422 28.8767 38.5222 28.4267 38.7382 27.9947C39.3502 26.7167 38.8462 26.4107 36.0022 26.4107C33.6442 26.3927 32.1502 26.9147 30.6742 28.2827C29.9542 28.9487 28.8022 30.9107 28.8022 31.4687C28.8022 31.6487 26.5882 34.0067 26.4262 34.0067C26.3902 34.0067 26.3902 32.8187 26.3902 31.3787C26.4082 28.7507 26.4082 28.7507 27.9022 27.0407C29.2342 25.5287 29.4682 25.3487 29.9542 25.3847C31.8802 25.5107 34.6522 24.3587 36.2182 22.7747C36.7942 22.1987 37.4602 21.3527 37.7122 20.9027C38.6842 19.1567 39.2422 16.4747 38.7382 15.9707C38.4682 15.7007 36.4882 15.7547 35.2462 16.0787C33.2302 16.6187 32.1682 17.1407 31.0522 18.1847C29.4322 19.7147 28.4422 21.8207 28.4422 23.7467C28.4422 24.2687 28.3522 24.5027 28.0822 24.6467C27.8842 24.7547 27.7222 24.9527 27.7222 25.1147C27.7222 25.2587 27.6142 25.4207 27.4882 25.4747C27.3622 25.5107 27.0562 25.8707 26.8222 26.2667C26.0302 27.5447 25.9762 27.3287 26.0482 23.2427C26.0842 20.1467 26.0842 20.1467 26.7682 19.2827C27.8482 17.9507 28.4782 16.4387 28.6942 14.6567C28.8382 13.4147 28.5682 11.3987 28.1002 10.3907C27.9022 9.9227 27.7222 9.4907 27.7222 9.4367C27.7222 9.1847 26.1022 7.2227 25.6342 6.9347C25.1842 6.6287 25.1482 6.6287 24.6802 6.9527C23.8702 7.5647 22.8802 9.0227 22.3222 10.4627C21.8542 11.6867 21.7822 12.0827 21.7822 13.7387C21.7822 14.7827 21.8722 15.8627 21.9802 16.1327C22.1062 16.4027 22.3042 16.8887 22.4302 17.2127C22.5742 17.5187 22.6822 17.8247 22.6822 17.8787C22.6822 18.0407 23.3662 19.0307 23.8702 19.6067C24.2482 20.0207 24.2662 20.2727 24.3382 23.5127C24.3922 26.3027 24.3562 26.9867 24.1762 26.9867C24.0322 26.9867 23.8522 26.7887 23.7622 26.5547C23.6722 26.3027 23.4382 25.9247 23.2402 25.6907C23.0422 25.4567 22.7362 25.0967 22.5382 24.8807C22.3042 24.6107 22.1602 24.0707 22.0702 23.2067C21.9442 21.8387 21.4762 20.6327 20.6662 19.5887C20.3962 19.2287 20.1622 18.8507 20.1622 18.7607C20.1622 18.4907 18.6682 17.4827 17.3542 16.8707C15.8602 16.1687 15.0682 15.9887 13.2322 15.8807C11.5042 15.7727 11.3242 15.9167 11.5402 17.2127C11.8102 18.9767 12.3682 20.3267 13.3582 21.6947C14.8702 23.7827 17.3002 25.1147 19.9282 25.2767C21.1162 25.3487 21.1702 25.3847 21.8722 26.1587C22.2682 26.5907 22.7902 27.2207 23.0422 27.5267C23.2942 27.8507 23.6362 28.2467 23.7982 28.4087C24.0502 28.6607 24.0862 29.0747 24.0682 31.3607C24.0502 32.8187 24.0142 34.0067 23.9962 34.0067C23.8702 34.0067 21.6022 31.6307 21.6022 31.5047C21.6022 31.0007 20.6482 29.2547 19.9642 28.5167C18.4522 26.8787 16.9222 26.2847 14.3842 26.3567C11.3422 26.4467 11.0902 26.7167 12.1162 28.8407C12.9802 30.6767 14.0962 31.8287 15.7882 32.6747C17.1742 33.3587 17.2282 33.3767 19.3342 33.3947C21.4762 33.4127 21.4762 33.4127 22.3942 34.3847C24.0502 36.1127 24.0322 36.0767 23.7802 39.2627C23.6542 40.7747 23.5102 42.4127 23.4742 42.9167C23.3302 44.8247 23.2042 45.0587 22.3402 44.9327C21.9622 44.8967 21.4582 44.9507 21.1882 45.0587C20.6302 45.2747 18.5422 47.1827 15.1402 50.5307C13.9162 51.7367 12.8722 52.6907 12.8182 52.6547C12.7822 52.6007 12.7462 51.0347 12.7642 49.1627C12.8002 45.8327 12.7822 45.7427 12.3862 45.2747C12.1162 44.9687 11.4862 44.6267 10.6582 44.3567C8.60616 43.6907 7.22017 42.8087 5.81616 41.3147C4.35817 39.7667 3.11617 37.4987 2.97217 36.1127C2.93617 35.6267 2.82817 35.1587 2.75617 35.0507C2.55817 34.7087 2.68417 12.9827 2.88217 11.9567C3.67417 8.1407 6.51817 4.8287 10.1722 3.4967C10.8562 3.2447 11.7202 3.0467 12.0622 3.0467C12.4042 3.0467 12.8182 2.9567 12.9622 2.8667C13.3582 2.6147 36.5962 2.6327 37.8382 2.8847ZM25.5442 13.7747C25.5622 14.5307 25.5982 15.2147 25.6522 15.3047C25.7962 15.5207 25.5442 19.1747 25.3642 19.4627C25.2202 19.6607 25.1662 19.6607 25.0402 19.4447C24.8422 19.1207 24.6082 16.0787 24.7702 15.8087C24.8422 15.6827 24.9142 14.9807 24.9322 14.2247C24.9862 12.3887 24.9862 12.4067 25.2742 12.4067C25.4542 12.4067 25.5262 12.7307 25.5442 13.7747ZM17.6602 20.5967C19.2802 21.7487 21.4222 23.8367 21.4222 24.2327C21.4222 24.7187 20.9362 24.4307 19.8922 23.3327C18.5422 21.9647 17.4082 20.9927 16.8322 20.7227C16.3822 20.5067 16.2742 20.3087 16.5082 20.0927C16.6882 19.9127 16.7242 19.9307 17.6602 20.5967ZM33.9142 20.3087C33.9682 20.3987 33.4822 20.9027 32.7982 21.4427C32.1322 21.9827 31.1062 22.9367 30.5122 23.5307C29.3782 24.7007 29.1622 24.8267 29.1622 24.3767C29.1622 23.9807 30.6202 22.4507 32.1862 21.1907C33.5182 20.1287 33.7342 20.0207 33.9142 20.3087ZM17.4262 29.9027C17.8042 30.1367 18.2722 30.4067 18.4522 30.5327C18.6502 30.6587 19.1362 30.9107 19.5502 31.1087C20.4322 31.5587 21.0982 32.1707 20.9722 32.3867C20.8282 32.6387 19.2802 31.8467 17.3002 30.5507C17.0482 30.3707 16.7242 30.1727 16.6162 30.1187C16.3462 29.9927 16.3102 29.5067 16.5622 29.5067C16.6702 29.5067 17.0482 29.6867 17.4262 29.9027ZM33.5722 30.2267C33.3922 30.4247 33.0322 30.6947 32.7802 30.8387C32.5282 30.9647 31.7182 31.4147 30.9802 31.8287C30.0622 32.3327 29.5762 32.5127 29.4502 32.3867C29.3242 32.2607 29.3422 32.1167 29.5222 31.9547C29.9362 31.5587 33.1582 29.8847 33.5542 29.8847C33.8782 29.8667 33.8962 29.8847 33.5722 30.2267Z" fill="white"/>
</svg>
